<svg width="17" height="17" viewBox="0 0 17 17" fill="none" xmlns="http://www.w3.org/2000/svg">
<path fill-rule="evenodd" clip-rule="evenodd" d="M7.77514 9.8677L7.72234 15.9181C7.71748 16.475 8.16503 16.9305 8.72194 16.9353C9.27889 16.9402 9.73428 16.4926 9.73914 15.9357L9.79194 9.88522L15.8425 9.93806C16.3994 9.94292 16.8548 9.49541 16.8597 8.93846C16.8645 8.38156 16.4169 7.92612 15.8601 7.92126L9.80962 7.8685L9.86241 1.81801C9.86723 1.2611 9.41968 0.805671 8.86281 0.800811C8.30587 0.79595 7.85047 1.24346 7.84561 1.80041L7.79282 7.85089L1.74233 7.79809C1.18542 7.79319 0.729991 8.24074 0.72513 8.79769C0.72027 9.35464 1.16778 9.81003 1.72473 9.81489L7.77514 9.8677V9.8677Z" fill="white"/>
</svg>
